<mxfile host="app.diagrams.net" agent="Mozilla/5.0 (Windows NT 10.0; Win64; x64) AppleWebKit/537.36 (KHTML, like Gecko) Chrome/131.0.0.0 Safari/537.36 Edg/131.0.0.0" version="25.0.1">
  <diagram name="Page-1" id="_SyEDddAeUtz3azWLQiH">
    <mxGraphModel dx="2339" dy="1907" grid="1" gridSize="10" guides="1" tooltips="1" connect="1" arrows="1" fold="1" page="1" pageScale="1" pageWidth="850" pageHeight="1100" math="0" shadow="0">
      <root>
        <mxCell id="0" />
        <mxCell id="1" parent="0" />
        <mxCell id="mDCG82k-GEzpOmP5eJ1z-1" value="" style="edgeStyle=orthogonalEdgeStyle;rounded=0;orthogonalLoop=1;jettySize=auto;html=1;" edge="1" parent="1" source="mDCG82k-GEzpOmP5eJ1z-2">
          <mxGeometry relative="1" as="geometry">
            <mxPoint x="-630.9655172413793" y="-1000" as="targetPoint" />
          </mxGeometry>
        </mxCell>
        <mxCell id="mDCG82k-GEzpOmP5eJ1z-2" value="&lt;font data-font-src=&quot;https://fonts.googleapis.com/css?family=Sarabun&quot; face=&quot;Sarabun&quot;&gt;Start&lt;/font&gt;" style="ellipse;whiteSpace=wrap;html=1;" vertex="1" parent="1">
          <mxGeometry x="-696.0000000000001" y="-1060" width="130" height="30" as="geometry" />
        </mxCell>
        <mxCell id="mDCG82k-GEzpOmP5eJ1z-3" value="" style="edgeStyle=orthogonalEdgeStyle;rounded=0;orthogonalLoop=1;jettySize=auto;html=1;" edge="1" parent="1">
          <mxGeometry relative="1" as="geometry">
            <mxPoint x="-632.9655172413793" y="-680" as="sourcePoint" />
            <mxPoint x="-633" y="-650" as="targetPoint" />
          </mxGeometry>
        </mxCell>
        <mxCell id="mDCG82k-GEzpOmP5eJ1z-18" value="กำหนดตัวแปร arr input1" style="rounded=0;whiteSpace=wrap;html=1;" vertex="1" parent="1">
          <mxGeometry x="-698.0000000000001" y="-720" width="130" height="40" as="geometry" />
        </mxCell>
        <mxCell id="mDCG82k-GEzpOmP5eJ1z-25" value="" style="edgeStyle=orthogonalEdgeStyle;rounded=0;orthogonalLoop=1;jettySize=auto;html=1;" edge="1" parent="1">
          <mxGeometry relative="1" as="geometry">
            <mxPoint x="-631.9655172413793" y="-610" as="sourcePoint" />
            <mxPoint x="-632" y="-580" as="targetPoint" />
          </mxGeometry>
        </mxCell>
        <mxCell id="mDCG82k-GEzpOmP5eJ1z-41" value="" style="edgeStyle=orthogonalEdgeStyle;rounded=0;orthogonalLoop=1;jettySize=auto;html=1;" edge="1" parent="1" target="mDCG82k-GEzpOmP5eJ1z-40">
          <mxGeometry relative="1" as="geometry">
            <mxPoint x="-632" y="-540" as="sourcePoint" />
          </mxGeometry>
        </mxCell>
        <mxCell id="mDCG82k-GEzpOmP5eJ1z-27" value="กำหนดตัวแปร arr input2" style="rounded=0;whiteSpace=wrap;html=1;" vertex="1" parent="1">
          <mxGeometry x="-697.0000000000001" y="-650" width="130" height="40" as="geometry" />
        </mxCell>
        <mxCell id="mDCG82k-GEzpOmP5eJ1z-30" value="" style="edgeStyle=orthogonalEdgeStyle;rounded=0;orthogonalLoop=1;jettySize=auto;html=1;" edge="1" target="mDCG82k-GEzpOmP5eJ1z-32" parent="1">
          <mxGeometry relative="1" as="geometry">
            <mxPoint x="-632.9655172413793" y="-960" as="sourcePoint" />
          </mxGeometry>
        </mxCell>
        <mxCell id="mDCG82k-GEzpOmP5eJ1z-31" value="" style="edgeStyle=orthogonalEdgeStyle;rounded=0;orthogonalLoop=1;jettySize=auto;html=1;" edge="1" source="mDCG82k-GEzpOmP5eJ1z-32" target="mDCG82k-GEzpOmP5eJ1z-36" parent="1">
          <mxGeometry relative="1" as="geometry" />
        </mxCell>
        <mxCell id="mDCG82k-GEzpOmP5eJ1z-32" value="กำหนดตัวแปร j1" style="rounded=0;whiteSpace=wrap;html=1;" vertex="1" parent="1">
          <mxGeometry x="-698.0000000000001" y="-930" width="130" height="40" as="geometry" />
        </mxCell>
        <mxCell id="mDCG82k-GEzpOmP5eJ1z-33" value="กำหนดตัวแปร i1" style="rounded=0;whiteSpace=wrap;html=1;" vertex="1" parent="1">
          <mxGeometry x="-698.0000000000001" y="-1000" width="130" height="40" as="geometry" />
        </mxCell>
        <mxCell id="mDCG82k-GEzpOmP5eJ1z-34" value="" style="edgeStyle=orthogonalEdgeStyle;rounded=0;orthogonalLoop=1;jettySize=auto;html=1;" edge="1" target="mDCG82k-GEzpOmP5eJ1z-35" parent="1">
          <mxGeometry relative="1" as="geometry">
            <mxPoint x="-632.9655172413793" y="-820" as="sourcePoint" />
          </mxGeometry>
        </mxCell>
        <mxCell id="mDCG82k-GEzpOmP5eJ1z-37" value="" style="edgeStyle=orthogonalEdgeStyle;rounded=0;orthogonalLoop=1;jettySize=auto;html=1;" edge="1" parent="1" source="mDCG82k-GEzpOmP5eJ1z-35" target="mDCG82k-GEzpOmP5eJ1z-18">
          <mxGeometry relative="1" as="geometry" />
        </mxCell>
        <mxCell id="mDCG82k-GEzpOmP5eJ1z-35" value="กำหนดตัวแปร j2" style="rounded=0;whiteSpace=wrap;html=1;" vertex="1" parent="1">
          <mxGeometry x="-698.0000000000001" y="-790" width="130" height="40" as="geometry" />
        </mxCell>
        <mxCell id="mDCG82k-GEzpOmP5eJ1z-36" value="กำหนดตัวแปร i2" style="rounded=0;whiteSpace=wrap;html=1;" vertex="1" parent="1">
          <mxGeometry x="-698.0000000000001" y="-860" width="130" height="40" as="geometry" />
        </mxCell>
        <mxCell id="mDCG82k-GEzpOmP5eJ1z-44" value="" style="edgeStyle=orthogonalEdgeStyle;rounded=0;orthogonalLoop=1;jettySize=auto;html=1;" edge="1" parent="1" source="mDCG82k-GEzpOmP5eJ1z-40" target="mDCG82k-GEzpOmP5eJ1z-43">
          <mxGeometry relative="1" as="geometry" />
        </mxCell>
        <mxCell id="mDCG82k-GEzpOmP5eJ1z-40" value="กรอกตัวแปร j1" style="rounded=0;whiteSpace=wrap;html=1;shape=parallelogram;perimeter=parallelogramPerimeter;fixedSize=1;" vertex="1" parent="1">
          <mxGeometry x="-698.0000000000001" y="-510" width="130" height="40" as="geometry" />
        </mxCell>
        <mxCell id="mDCG82k-GEzpOmP5eJ1z-42" value="กรอกตัวแปร i1" style="rounded=0;whiteSpace=wrap;html=1;shape=parallelogram;perimeter=parallelogramPerimeter;fixedSize=1;" vertex="1" parent="1">
          <mxGeometry x="-696.0000000000001" y="-580" width="130" height="40" as="geometry" />
        </mxCell>
        <mxCell id="mDCG82k-GEzpOmP5eJ1z-50" value="" style="edgeStyle=orthogonalEdgeStyle;rounded=0;orthogonalLoop=1;jettySize=auto;html=1;" edge="1" parent="1" source="mDCG82k-GEzpOmP5eJ1z-43" target="mDCG82k-GEzpOmP5eJ1z-48">
          <mxGeometry relative="1" as="geometry" />
        </mxCell>
        <mxCell id="mDCG82k-GEzpOmP5eJ1z-43" value="กรอกตัวแปร arrinput 1" style="rounded=0;whiteSpace=wrap;html=1;shape=parallelogram;perimeter=parallelogramPerimeter;fixedSize=1;" vertex="1" parent="1">
          <mxGeometry x="-698.0000000000001" y="-440" width="130" height="40" as="geometry" />
        </mxCell>
        <mxCell id="mDCG82k-GEzpOmP5eJ1z-45" value="" style="edgeStyle=orthogonalEdgeStyle;rounded=0;orthogonalLoop=1;jettySize=auto;html=1;" edge="1" target="mDCG82k-GEzpOmP5eJ1z-47" parent="1">
          <mxGeometry relative="1" as="geometry">
            <mxPoint x="-634" y="-330" as="sourcePoint" />
          </mxGeometry>
        </mxCell>
        <mxCell id="mDCG82k-GEzpOmP5eJ1z-46" value="" style="edgeStyle=orthogonalEdgeStyle;rounded=0;orthogonalLoop=1;jettySize=auto;html=1;" edge="1" source="mDCG82k-GEzpOmP5eJ1z-47" target="mDCG82k-GEzpOmP5eJ1z-49" parent="1">
          <mxGeometry relative="1" as="geometry" />
        </mxCell>
        <mxCell id="mDCG82k-GEzpOmP5eJ1z-47" value="กรอกตัวแปร j2" style="rounded=0;whiteSpace=wrap;html=1;shape=parallelogram;perimeter=parallelogramPerimeter;fixedSize=1;" vertex="1" parent="1">
          <mxGeometry x="-700.0000000000001" y="-300" width="130" height="40" as="geometry" />
        </mxCell>
        <mxCell id="mDCG82k-GEzpOmP5eJ1z-48" value="กรอกตัวแปร i2" style="rounded=0;whiteSpace=wrap;html=1;shape=parallelogram;perimeter=parallelogramPerimeter;fixedSize=1;" vertex="1" parent="1">
          <mxGeometry x="-698.0000000000001" y="-370" width="130" height="40" as="geometry" />
        </mxCell>
        <mxCell id="mDCG82k-GEzpOmP5eJ1z-52" value="" style="edgeStyle=orthogonalEdgeStyle;rounded=0;orthogonalLoop=1;jettySize=auto;html=1;" edge="1" parent="1" source="mDCG82k-GEzpOmP5eJ1z-49" target="mDCG82k-GEzpOmP5eJ1z-51">
          <mxGeometry relative="1" as="geometry" />
        </mxCell>
        <mxCell id="mDCG82k-GEzpOmP5eJ1z-49" value="กรอกตัวแปร arrinput 2" style="rounded=0;whiteSpace=wrap;html=1;shape=parallelogram;perimeter=parallelogramPerimeter;fixedSize=1;" vertex="1" parent="1">
          <mxGeometry x="-700.0000000000001" y="-230" width="130" height="40" as="geometry" />
        </mxCell>
        <mxCell id="mDCG82k-GEzpOmP5eJ1z-57" value="" style="edgeStyle=orthogonalEdgeStyle;rounded=0;orthogonalLoop=1;jettySize=auto;html=1;" edge="1" parent="1" source="mDCG82k-GEzpOmP5eJ1z-51" target="mDCG82k-GEzpOmP5eJ1z-56">
          <mxGeometry relative="1" as="geometry" />
        </mxCell>
        <mxCell id="mDCG82k-GEzpOmP5eJ1z-67" style="edgeStyle=orthogonalEdgeStyle;rounded=0;orthogonalLoop=1;jettySize=auto;html=1;entryX=0;entryY=0.5;entryDx=0;entryDy=0;" edge="1" parent="1" source="mDCG82k-GEzpOmP5eJ1z-51" target="mDCG82k-GEzpOmP5eJ1z-65">
          <mxGeometry relative="1" as="geometry" />
        </mxCell>
        <mxCell id="mDCG82k-GEzpOmP5eJ1z-51" value="arr1 และ arr2&amp;nbsp;&lt;div&gt;เท่ากันหรือไม่&lt;/div&gt;" style="rhombus;whiteSpace=wrap;html=1;" vertex="1" parent="1">
          <mxGeometry x="-699" y="-160" width="128" height="80" as="geometry" />
        </mxCell>
        <mxCell id="mDCG82k-GEzpOmP5eJ1z-59" value="" style="edgeStyle=orthogonalEdgeStyle;rounded=0;orthogonalLoop=1;jettySize=auto;html=1;" edge="1" parent="1" source="mDCG82k-GEzpOmP5eJ1z-53" target="mDCG82k-GEzpOmP5eJ1z-54">
          <mxGeometry relative="1" as="geometry" />
        </mxCell>
        <mxCell id="mDCG82k-GEzpOmP5eJ1z-53" value="input1 =+ input2" style="rounded=0;whiteSpace=wrap;html=1;" vertex="1" parent="1">
          <mxGeometry x="-700.0000000000001" y="70" width="130" height="40" as="geometry" />
        </mxCell>
        <mxCell id="mDCG82k-GEzpOmP5eJ1z-63" value="" style="edgeStyle=orthogonalEdgeStyle;rounded=0;orthogonalLoop=1;jettySize=auto;html=1;" edge="1" parent="1" source="mDCG82k-GEzpOmP5eJ1z-54" target="mDCG82k-GEzpOmP5eJ1z-62">
          <mxGeometry relative="1" as="geometry" />
        </mxCell>
        <mxCell id="mDCG82k-GEzpOmP5eJ1z-54" value="บวกครบทุกตัวหรือไม่" style="rhombus;whiteSpace=wrap;html=1;" vertex="1" parent="1">
          <mxGeometry x="-699" y="170" width="128" height="80" as="geometry" />
        </mxCell>
        <mxCell id="mDCG82k-GEzpOmP5eJ1z-58" value="" style="edgeStyle=orthogonalEdgeStyle;rounded=0;orthogonalLoop=1;jettySize=auto;html=1;" edge="1" parent="1" source="mDCG82k-GEzpOmP5eJ1z-56" target="mDCG82k-GEzpOmP5eJ1z-53">
          <mxGeometry relative="1" as="geometry" />
        </mxCell>
        <mxCell id="mDCG82k-GEzpOmP5eJ1z-56" value="" style="ellipse;whiteSpace=wrap;html=1;aspect=fixed;" vertex="1" parent="1">
          <mxGeometry x="-650" y="-20" width="30" height="30" as="geometry" />
        </mxCell>
        <mxCell id="mDCG82k-GEzpOmP5eJ1z-60" style="edgeStyle=orthogonalEdgeStyle;rounded=0;orthogonalLoop=1;jettySize=auto;html=1;entryX=0;entryY=0.667;entryDx=0;entryDy=0;entryPerimeter=0;" edge="1" parent="1" source="mDCG82k-GEzpOmP5eJ1z-54" target="mDCG82k-GEzpOmP5eJ1z-56">
          <mxGeometry relative="1" as="geometry">
            <Array as="points">
              <mxPoint x="-740" y="210" />
              <mxPoint x="-740" />
            </Array>
          </mxGeometry>
        </mxCell>
        <mxCell id="mDCG82k-GEzpOmP5eJ1z-69" value="" style="edgeStyle=orthogonalEdgeStyle;rounded=0;orthogonalLoop=1;jettySize=auto;html=1;" edge="1" parent="1" source="mDCG82k-GEzpOmP5eJ1z-62" target="mDCG82k-GEzpOmP5eJ1z-68">
          <mxGeometry relative="1" as="geometry" />
        </mxCell>
        <mxCell id="mDCG82k-GEzpOmP5eJ1z-62" value="ปริ้น arrinput1" style="rounded=0;whiteSpace=wrap;html=1;shape=parallelogram;perimeter=parallelogramPerimeter;fixedSize=1;" vertex="1" parent="1">
          <mxGeometry x="-520.0000000000001" y="190" width="130" height="40" as="geometry" />
        </mxCell>
        <mxCell id="mDCG82k-GEzpOmP5eJ1z-64" value="&lt;font face=&quot;Sarabun&quot;&gt;END&lt;/font&gt;" style="ellipse;whiteSpace=wrap;html=1;" vertex="1" parent="1">
          <mxGeometry x="-290.0000000000001" y="195" width="130" height="30" as="geometry" />
        </mxCell>
        <mxCell id="mDCG82k-GEzpOmP5eJ1z-71" style="edgeStyle=orthogonalEdgeStyle;rounded=0;orthogonalLoop=1;jettySize=auto;html=1;entryX=0.5;entryY=0;entryDx=0;entryDy=0;" edge="1" parent="1" source="mDCG82k-GEzpOmP5eJ1z-65" target="mDCG82k-GEzpOmP5eJ1z-68">
          <mxGeometry relative="1" as="geometry" />
        </mxCell>
        <mxCell id="mDCG82k-GEzpOmP5eJ1z-65" value="Error: Invalid matrix input" style="rounded=0;whiteSpace=wrap;html=1;shape=parallelogram;perimeter=parallelogramPerimeter;fixedSize=1;" vertex="1" parent="1">
          <mxGeometry x="-425" y="-140" width="180" height="40" as="geometry" />
        </mxCell>
        <mxCell id="mDCG82k-GEzpOmP5eJ1z-70" value="" style="edgeStyle=orthogonalEdgeStyle;rounded=0;orthogonalLoop=1;jettySize=auto;html=1;" edge="1" parent="1" source="mDCG82k-GEzpOmP5eJ1z-68" target="mDCG82k-GEzpOmP5eJ1z-64">
          <mxGeometry relative="1" as="geometry" />
        </mxCell>
        <mxCell id="mDCG82k-GEzpOmP5eJ1z-68" value="" style="ellipse;whiteSpace=wrap;html=1;aspect=fixed;" vertex="1" parent="1">
          <mxGeometry x="-350" y="195" width="30" height="30" as="geometry" />
        </mxCell>
        <mxCell id="mDCG82k-GEzpOmP5eJ1z-72" value="T" style="text;html=1;align=center;verticalAlign=middle;resizable=0;points=[];autosize=1;strokeColor=none;fillColor=none;" vertex="1" parent="1">
          <mxGeometry x="-640" y="-90" width="30" height="30" as="geometry" />
        </mxCell>
        <mxCell id="mDCG82k-GEzpOmP5eJ1z-73" value="F" style="text;html=1;align=center;verticalAlign=middle;resizable=0;points=[];autosize=1;strokeColor=none;fillColor=none;" vertex="1" parent="1">
          <mxGeometry x="-580" y="-150" width="30" height="30" as="geometry" />
        </mxCell>
        <mxCell id="mDCG82k-GEzpOmP5eJ1z-74" value="T" style="text;html=1;align=center;verticalAlign=middle;resizable=0;points=[];autosize=1;strokeColor=none;fillColor=none;" vertex="1" parent="1">
          <mxGeometry x="-568" y="180" width="30" height="30" as="geometry" />
        </mxCell>
        <mxCell id="mDCG82k-GEzpOmP5eJ1z-75" value="F" style="text;html=1;align=center;verticalAlign=middle;resizable=0;points=[];autosize=1;strokeColor=none;fillColor=none;" vertex="1" parent="1">
          <mxGeometry x="-720" y="180" width="30" height="30" as="geometry" />
        </mxCell>
      </root>
    </mxGraphModel>
  </diagram>
</mxfile>
